<?xml version="1.0" encoding="utf-8"?>
<!-- Generator: Adobe Illustrator 23.1.1, SVG Export Plug-In . SVG Version: 6.00 Build 0)  -->
<svg version="1.1" id="Layer_1" xmlns="http://www.w3.org/2000/svg" xmlns:xlink="http://www.w3.org/1999/xlink" x="0px" y="0px"
	 viewBox="0 0 390.4 158.4" style="enable-background:new 0 0 390.4 158.4;" xml:space="preserve">
<style type="text/css">
	.st0{fill:#00FFC2;}
	.st1{fill:#FFFFFF;}
	.st2{fill:#1F5577;}
	.st3{fill:#00FDAD;}
	.st4{fill:#20CE94;}
</style>
<g>
	<g>
		<polygon class="st3" points="37.1,111.3 0,74.2 74.2,0 148.4,0 		"/>
		<polygon class="st4" points="37.1,37.1 0,74.2 74.2,148.4 148.4,148.4 		"/>
	</g>
	<g>
		<g>
			<path d="M169.5,16.6V0h20.2v16.6H169.5z M189.7,28v73.4h-20.2V28H189.7z"/>
			<path d="M240.6,41.2c-3.2,0-5.9,0.7-8.1,2.2c-2.2,1.5-4,3.4-5.3,5.7c-1.4,2.3-2.3,4.9-2.9,7.7c-0.6,2.8-0.9,5.6-0.9,8.3
				c0,2.6,0.3,5.3,0.9,8.1c0.6,2.7,1.5,5.2,2.8,7.5c1.3,2.2,3,4,5.2,5.5c2.2,1.4,4.8,2.1,7.9,2.1c4.8,0,8.5-1.3,11.1-4
				c2.6-2.7,4.2-6.3,4.9-10.9h19.4c-1.3,9.7-5.1,17.2-11.4,22.3s-14.2,7.7-24,7.7c-5.5,0-10.5-0.9-15.1-2.8
				c-4.6-1.8-8.5-4.4-11.7-7.7c-3.2-3.3-5.7-7.3-7.5-11.8c-1.8-4.6-2.7-9.6-2.7-15.1c0-5.7,0.8-10.9,2.5-15.8
				c1.7-4.9,4.1-9.1,7.3-12.6c3.2-3.5,7.1-6.3,11.8-8.3c4.6-2,9.9-3,15.9-3c4.4,0,8.5,0.6,12.6,1.7c4,1.1,7.6,2.9,10.8,5.2
				c3.2,2.3,5.7,5.2,7.7,8.7c2,3.5,3.1,7.5,3.4,12.3h-19.7C254.2,45.4,249.3,41.2,240.6,41.2z"/>
			<path d="M327.4,28v13.5h-14.8v36.3c0,3.4,0.6,5.7,1.7,6.8c1.1,1.1,3.4,1.7,6.8,1.7c1.1,0,2.2,0,3.3-0.1c1-0.1,2-0.2,3-0.4v15.6
				c-1.7,0.3-3.6,0.5-5.7,0.6c-2.1,0.1-4.1,0.1-6.1,0.1c-3.1,0-6.1-0.2-8.9-0.6c-2.8-0.4-5.3-1.3-7.4-2.5c-2.1-1.2-3.8-3-5-5.3
				c-1.2-2.3-1.8-5.3-1.8-8.9V41.4h-12.2V28h12.2V6h20.2v22H327.4z"/>
		</g>
		<g>
			<path d="M170.7,122.9c0.6-1.2,1.4-2.3,2.5-3.1c1-0.8,2.3-1.4,3.7-1.8c1.4-0.4,3-0.6,4.7-0.6c1.3,0,2.6,0.1,3.9,0.4
				c1.3,0.2,2.4,0.7,3.5,1.4c1,0.7,1.9,1.6,2.5,2.9c0.6,1.2,1,2.8,1,4.8v15.6c0,1.4,0.7,2.2,2.1,2.2c0.4,0,0.8-0.1,1.1-0.2v3
				c-0.4,0.1-0.8,0.1-1.1,0.2c-0.3,0-0.7,0.1-1.2,0.1c-0.9,0-1.6-0.1-2.2-0.4c-0.5-0.2-1-0.6-1.3-1.1c-0.3-0.5-0.5-1-0.6-1.6
				c-0.1-0.6-0.1-1.3-0.1-2.1h-0.1c-0.6,0.9-1.3,1.8-2,2.5c-0.7,0.7-1.4,1.4-2.2,1.8c-0.8,0.5-1.7,0.9-2.8,1.1
				c-1,0.3-2.3,0.4-3.7,0.4c-1.4,0-2.6-0.2-3.8-0.5c-1.2-0.3-2.2-0.8-3.1-1.5c-0.9-0.7-1.6-1.6-2.1-2.7c-0.5-1.1-0.8-2.4-0.8-3.8
				c0-2,0.5-3.6,1.4-4.8c0.9-1.2,2.1-2,3.6-2.6c1.5-0.6,3.2-1,5.1-1.3c1.9-0.2,3.8-0.5,5.7-0.7c0.8-0.1,1.4-0.2,2-0.3
				c0.6-0.1,1-0.3,1.4-0.6c0.4-0.3,0.7-0.7,0.9-1.2c0.2-0.5,0.3-1.1,0.3-1.9c0-1.2-0.2-2.2-0.6-3c-0.4-0.8-0.9-1.4-1.6-1.8
				c-0.7-0.5-1.5-0.8-2.4-0.9c-0.9-0.2-1.9-0.3-3-0.3c-2.3,0-4.1,0.5-5.6,1.6c-1.4,1.1-2.2,2.8-2.3,5.2h-3.6
				C169.7,125.6,170.1,124.1,170.7,122.9z M188.6,131.6c-0.2,0.4-0.7,0.7-1.3,0.9s-1.2,0.3-1.7,0.4c-1.5,0.3-3.1,0.5-4.7,0.7
				c-1.6,0.2-3.1,0.5-4.4,0.9c-1.3,0.4-2.4,1-3.3,1.8c-0.9,0.8-1.3,1.9-1.3,3.3c0,0.9,0.2,1.7,0.5,2.4c0.4,0.7,0.8,1.3,1.4,1.8
				c0.6,0.5,1.3,0.9,2.1,1.2c0.8,0.3,1.6,0.4,2.4,0.4c1.4,0,2.7-0.2,3.9-0.6c1.2-0.4,2.3-1,3.3-1.8c0.9-0.8,1.7-1.8,2.2-2.9
				c0.5-1.1,0.8-2.4,0.8-3.9v-4.7H188.6z"/>
			<path d="M217.4,122.4c-1.3-1.2-3.2-1.9-5.6-1.9c-1.7,0-3.2,0.4-4.5,1.1c-1.3,0.7-2.4,1.7-3.2,2.8c-0.9,1.2-1.5,2.5-1.9,4
				c-0.4,1.5-0.7,3-0.7,4.6c0,1.6,0.2,3.1,0.7,4.6c0.4,1.5,1.1,2.8,1.9,4s1.9,2.1,3.2,2.8c1.3,0.7,2.8,1.1,4.5,1.1
				c1.1,0,2.1-0.2,3.1-0.6c1-0.4,1.9-1,2.6-1.7c0.8-0.7,1.4-1.6,1.9-2.6c0.5-1,0.8-2.1,0.9-3.3h3.6c-0.5,3.6-1.8,6.3-3.9,8.3
				c-2.1,2-4.8,3-8.2,3c-2.2,0-4.2-0.4-5.9-1.2c-1.7-0.8-3.2-1.9-4.3-3.3c-1.2-1.4-2.1-3-2.7-4.9c-0.6-1.9-0.9-3.9-0.9-6
				s0.3-4.1,0.9-6c0.6-1.9,1.5-3.5,2.7-4.9c1.2-1.4,2.6-2.5,4.3-3.3c1.7-0.8,3.7-1.2,5.9-1.2c3.1,0,5.8,0.8,8,2.5
				c2.2,1.7,3.5,4.2,3.9,7.5h-3.6C219.6,125.4,218.7,123.6,217.4,122.4z"/>
			<path d="M229.6,122.9c0.6-1.2,1.4-2.3,2.5-3.1c1-0.8,2.3-1.4,3.7-1.8c1.4-0.4,3-0.6,4.7-0.6c1.3,0,2.6,0.1,3.9,0.4
				c1.3,0.2,2.4,0.7,3.5,1.4c1,0.7,1.9,1.6,2.5,2.9c0.6,1.2,1,2.8,1,4.8v15.6c0,1.4,0.7,2.2,2.1,2.2c0.4,0,0.8-0.1,1.1-0.2v3
				c-0.4,0.1-0.8,0.1-1.1,0.2c-0.3,0-0.7,0.1-1.2,0.1c-0.9,0-1.6-0.1-2.2-0.4c-0.5-0.2-1-0.6-1.3-1.1c-0.3-0.5-0.5-1-0.6-1.6
				c-0.1-0.6-0.1-1.3-0.1-2.1h-0.1c-0.6,0.9-1.3,1.8-2,2.5c-0.7,0.7-1.4,1.4-2.2,1.8c-0.8,0.5-1.7,0.9-2.8,1.1
				c-1,0.3-2.3,0.4-3.7,0.4c-1.4,0-2.6-0.2-3.8-0.5c-1.2-0.3-2.2-0.8-3.1-1.5c-0.9-0.7-1.6-1.6-2.1-2.7c-0.5-1.1-0.8-2.4-0.8-3.8
				c0-2,0.5-3.6,1.4-4.8c0.9-1.2,2.1-2,3.6-2.6c1.5-0.6,3.2-1,5.1-1.3c1.9-0.2,3.8-0.5,5.7-0.7c0.8-0.1,1.4-0.2,2-0.3
				c0.6-0.1,1-0.3,1.4-0.6c0.4-0.3,0.7-0.7,0.9-1.2c0.2-0.5,0.3-1.1,0.3-1.9c0-1.2-0.2-2.2-0.6-3c-0.4-0.8-0.9-1.4-1.6-1.8
				c-0.7-0.5-1.5-0.8-2.4-0.9c-0.9-0.2-1.9-0.3-3-0.3c-2.3,0-4.1,0.5-5.6,1.6c-1.4,1.1-2.2,2.8-2.3,5.2h-3.6
				C228.7,125.6,229,124.1,229.6,122.9z M247.5,131.6c-0.2,0.4-0.7,0.7-1.3,0.9s-1.2,0.3-1.7,0.4c-1.5,0.3-3.1,0.5-4.7,0.7
				c-1.6,0.2-3.1,0.5-4.4,0.9c-1.3,0.4-2.4,1-3.3,1.8c-0.9,0.8-1.3,1.9-1.3,3.3c0,0.9,0.2,1.7,0.5,2.4c0.4,0.7,0.8,1.3,1.4,1.8
				c0.6,0.5,1.3,0.9,2.1,1.2c0.8,0.3,1.6,0.4,2.4,0.4c1.4,0,2.7-0.2,3.9-0.6c1.2-0.4,2.3-1,3.3-1.8c0.9-0.8,1.7-1.8,2.2-2.9
				c0.5-1.1,0.8-2.4,0.8-3.9v-4.7H247.5z"/>
			<path d="M280.8,147.6v-5.6h-0.1c-0.4,0.9-0.9,1.8-1.7,2.6c-0.7,0.8-1.6,1.5-2.5,2c-0.9,0.5-2,1-3,1.3c-1.1,0.3-2.1,0.5-3.2,0.5
				c-2.2,0-4.2-0.4-5.8-1.2c-1.6-0.8-3-1.9-4.1-3.3c-1.1-1.4-1.9-3.1-2.4-4.9c-0.5-1.9-0.8-3.9-0.8-5.9s0.3-4.1,0.8-5.9
				c0.5-1.9,1.3-3.5,2.4-4.9c1.1-1.4,2.5-2.5,4.1-3.4s3.6-1.2,5.8-1.2c1.1,0,2.2,0.1,3.2,0.4c1,0.3,2,0.7,2.9,1.2
				c0.9,0.5,1.7,1.2,2.4,2c0.7,0.8,1.2,1.7,1.6,2.8h0.1v-16.8h3.6v40.5H280.8z M261.2,137.5c0.4,1.5,0.9,2.8,1.7,4
				c0.8,1.2,1.8,2.1,3,2.9c1.2,0.7,2.7,1.1,4.4,1.1c1.9,0,3.5-0.4,4.8-1.1c1.3-0.7,2.4-1.7,3.2-2.9c0.8-1.2,1.4-2.5,1.8-4
				c0.4-1.5,0.5-3,0.5-4.5c0-1.5-0.2-3-0.5-4.5c-0.4-1.5-0.9-2.8-1.8-4c-0.8-1.2-1.9-2.1-3.2-2.9c-1.3-0.7-2.9-1.1-4.8-1.1
				c-1.7,0-3.2,0.4-4.4,1.1s-2.2,1.7-3,2.9c-0.8,1.2-1.3,2.5-1.7,4c-0.4,1.5-0.5,3-0.5,4.5C260.7,134.5,260.8,136,261.2,137.5z"/>
			<path d="M293.6,138c0.4,1.4,0.9,2.6,1.7,3.7c0.8,1.1,1.8,2,3,2.7c1.2,0.7,2.7,1.1,4.4,1.1c2.6,0,4.7-0.7,6.1-2
				c1.5-1.4,2.5-3.2,3.1-5.5h3.6c-0.8,3.3-2.1,5.9-4.2,7.7c-2,1.8-4.9,2.7-8.6,2.7c-2.3,0-4.3-0.4-6-1.2c-1.7-0.8-3.1-1.9-4.1-3.3
				c-1.1-1.4-1.8-3.1-2.4-4.9c-0.5-1.9-0.8-3.9-0.8-5.9c0-1.9,0.3-3.8,0.8-5.7c0.5-1.9,1.3-3.5,2.4-5c1.1-1.5,2.4-2.6,4.1-3.5
				c1.7-0.9,3.7-1.3,6-1.3c2.3,0,4.4,0.5,6,1.4c1.7,0.9,3,2.2,4.1,3.7c1,1.5,1.8,3.3,2.2,5.3c0.5,2,0.6,4,0.6,6H293
				C293,135.3,293.2,136.6,293.6,138z M311.3,127c-0.4-1.2-1-2.4-1.8-3.3c-0.8-1-1.8-1.7-2.9-2.3c-1.1-0.6-2.4-0.9-3.9-0.9
				c-1.5,0-2.8,0.3-3.9,0.9c-1.1,0.6-2.1,1.4-2.9,2.3c-0.8,1-1.4,2.1-1.9,3.3c-0.5,1.3-0.8,2.6-0.9,3.9h19
				C311.9,129.6,311.7,128.3,311.3,127z"/>
			<path d="M323.7,118.4v4.9h0.2c0.9-1.8,2.2-3.2,3.7-4.3c1.5-1,3.5-1.5,5.9-1.5c1.9,0,3.7,0.5,5.3,1.4c1.6,0.9,2.6,2.4,3.2,4.3
				c0.9-1.9,2.2-3.4,3.9-4.3c1.7-0.9,3.5-1.4,5.5-1.4c6.5,0,9.7,3.4,9.7,10.3v19.9h-3.6v-19.7c0-2.4-0.5-4.3-1.5-5.5
				c-1-1.3-2.8-1.9-5.4-1.9c-1.6,0-2.8,0.3-3.9,0.9c-1,0.6-1.8,1.4-2.4,2.4c-0.6,1-1,2.1-1.3,3.4c-0.2,1.3-0.4,2.6-0.4,3.9v16.6
				h-3.6v-19.9c0-1-0.1-1.9-0.3-2.8c-0.2-0.9-0.5-1.7-1-2.3c-0.5-0.7-1.1-1.2-1.9-1.6c-0.8-0.4-1.8-0.6-2.9-0.6
				c-1.5,0-2.8,0.3-3.9,0.8c-1.1,0.5-2,1.3-2.7,2.3c-0.7,1-1.2,2.1-1.6,3.4c-0.3,1.3-0.5,2.7-0.5,4.3v16.3h-3.6v-29.3H323.7z"/>
			<path d="M368.2,118.4l9.7,25l9-25h3.6l-12.7,33.7c-0.5,1.2-1,2.3-1.5,3.1c-0.5,0.8-1,1.5-1.5,1.9c-0.5,0.5-1.2,0.8-1.9,1
				c-0.7,0.2-1.7,0.3-2.8,0.3c-0.7,0-1.3-0.1-1.7-0.1c-0.4,0-0.7-0.1-1-0.2v-3c0.4,0.1,0.8,0.1,1.2,0.2c0.4,0.1,0.8,0.1,1.2,0.1
				c0.8,0,1.4-0.1,2-0.3c0.5-0.2,1-0.5,1.3-0.9s0.7-0.9,1-1.4c0.3-0.6,0.5-1.2,0.9-1.9l1.2-3.3l-11.7-29.2H368.2z"/>
		</g>
	</g>
</g>
</svg>
